<svg xmlns="http://www.w3.org/2000/svg" id="Layer_1" data-name="Layer 1" viewBox="0 0 730.11 730.36"><defs fill="#000000"><style>.cls-1{fill:#ffffff;}</style></defs><title>Bezzelo Logo</title><path class="cls-1" d="M289,309.79h34.74q24.44,0,30.27,4.93,6.94,6,6.94,20.62v19.5q0,19.74-13.67,23.77,8.29,2.91,11.1,9.3t2.8,21.63v15.92a113,113,0,0,1-.67,15.24q-1.35,8.52-6.28,13.23a16.76,16.76,0,0,1-9.75,4.48q-6.17.9-25.44.9H289Zm31.6,55.37h1.57c4,0,6.35-1.2,6.95-3.59a25.18,25.18,0,0,0,.45-5.6V345.65c0-5.38-.34-8.66-1-9.86s-2.65-1.79-5.94-1.79h-2Zm0,27.57V434.2c4.49,0,7.1-.56,7.85-1.68s1.12-5.12,1.12-12V406.18q0-9.42-.9-11.43t-5.15-2Z" fill="#000000"/><path class="cls-1" d="M430.27,424.62v13.53q0,13.35-3.39,17.08t-10.14,4.42a102,102,0,0,1-11.1.35,94.35,94.35,0,0,1-10.58-.35q-6.24-.69-9.19-3.64a11.9,11.9,0,0,1-3.56-6.16q-.6-3.19-.6-14.3v-46q0-11.1.69-14.83a11.83,11.83,0,0,1,3.29-6.33q3.65-3.81,20.47-3.81,11.26,0,14.74.78a10.48,10.48,0,0,1,5.9,3.73,13.05,13.05,0,0,1,2.95,6.5,151.44,151.44,0,0,1,.52,16.21V415.6h-27.4v19.95c0,3.58.22,5.78.69,6.59a2.55,2.55,0,0,0,2.43,1.21q3.12,0,3.12-7.8V424.62ZM402.87,399h6.24v-9.37a33.14,33.14,0,0,0-.35-6.59,2.7,2.7,0,0,0-2.77-1.91,2.6,2.6,0,0,0-2.78,2.61,34.5,34.5,0,0,0-.34,5.89Z" fill="#000000"/><path class="cls-1" d="M490.09,365.31v17l-22.54,60.35h22.54v16.65H445V441.45l22.89-60.18H448v-16Z" fill="#000000"/><path class="cls-1" d="M545.58,365.31v17L523,442.66h22.54v16.65H500.49V441.45l22.9-60.18H503.44v-16Z" fill="#000000"/><path class="cls-1" d="M609.23,424.62v13.53q0,13.35-3.38,17.08t-10.15,4.42a101.82,101.82,0,0,1-11.1.35,94.47,94.47,0,0,1-10.58-.35q-6.24-.69-9.19-3.64a11.87,11.87,0,0,1-3.55-6.16q-.62-3.19-.61-14.3v-46q0-11.1.69-14.83a11.84,11.84,0,0,1,3.3-6.33q3.65-3.81,20.46-3.81,11.28,0,14.75.78a10.46,10.46,0,0,1,5.89,3.73,13.05,13.05,0,0,1,3,6.5q.52,3.56.52,16.21V415.6h-27.4v19.95q0,5.37.69,6.59a2.55,2.55,0,0,0,2.43,1.21q3.12,0,3.12-7.8V424.62ZM581.83,399h6.24v-9.37a34.41,34.41,0,0,0-.34-6.59,2.71,2.71,0,0,0-2.78-1.91c-1.62,0-2.54.87-2.77,2.61a33.21,33.21,0,0,0-.35,5.89Z" fill="#000000"/><path class="cls-1" d="M647.38,343.63V459.31H626.22V343.63Z" fill="#000000"/><path class="cls-1" d="M712.93,389.42v47.86q0,13.53-3,17.43t-9.63,4.94A107.34,107.34,0,0,1,689,460q-9.71,0-12.31-.35-7.29-1.2-9.88-5.89-2.26-4-2.26-17.35V387.16q0-13.52,3-17.43c2-2.6,5.46-4.18,10.31-4.77a116.38,116.38,0,0,1,12-.34q9.71,0,12.83.69,6.76,1.74,9,7.8Q712.94,376.41,712.93,389.42Zm-27.22.69v46.3a33.89,33.89,0,0,0,.17,4.69,2.6,2.6,0,0,0,2.77,2.25q3.14,0,3.13-6.94V384.56q-.53-3.46-3.13-3.47c-1.61,0-2.6,1.16-2.94,3.47Z" fill="#000000"/><path class="cls-1" d="M209.77,365.1q13.17,5.56,22.31,21.83t9.14,41.93c0,15.39-4.87,43.1-22.33,55.66-23,16.52-47.84,15.7-74.64,16.27-15,.32-29.92.25-44.87-.34-17.18-.69-33.76-1.65-49-10.25-18.94-10.7-33.23-29.13-33.23-51.42V408a69.91,69.91,0,0,1,69.9-69.9h90.65a19.23,19.23,0,0,0,12.13-4.06q5.24-4.06,5.25-15.19,0-10.69-5.4-14.55a20.11,20.11,0,0,0-12-3.85H17.17l41.94-71.11h99.13c31.28,0,61.29,9.56,73.24,41.37Q237,285.51,237,305.19a96.76,96.76,0,0,1-2.4,22.68,82.31,82.31,0,0,1-6.14,17.33,46.64,46.64,0,0,1-8.69,12.41A39.54,39.54,0,0,1,209.77,365.1ZM71.09,411.48v15.08A12.13,12.13,0,0,0,83.23,438.7h83.52q10.19,0,14.68-5.13t4.49-15q0-9.4-4.49-14.33t-14.68-4.92H83.23A12.13,12.13,0,0,0,71.09,411.48Z" fill="#000000"/></svg>