<svg xmlns="http://www.w3.org/2000/svg" enable-background="new 0 0 360 360" viewBox="0 0 360 360" id="messenger"><linearGradient id="a" x1="86.393" x2="245.03" y1="321.305" y2="66.316" gradientUnits="userSpaceOnUse"><stop offset="0" stop-color="#0093ff"></stop><stop offset=".489" stop-color="#a133f0"></stop><stop offset="1" stop-color="#ff655f"></stop></linearGradient><path fill="url(#a)" d="M324.87,170.84c0,74.47-64.87,134.84-144.87,134.84c-14.57,0-28.63-2-41.9-5.73l-40.72,23.23
		c-4.13,2.36-9.27-0.64-9.25-5.4l0.21-42.51c-32.49-24.72-53.22-62.32-53.22-104.42C35.13,96.38,99.99,36,180,36
		S324.87,96.38,324.87,170.84z"></path><path fill="#fff" d="M102.52,199.47l58.7-62.15c1.49-1.58,3.99-1.62,5.54-0.09l32.08,31.86c2.16,2.14,5.47,2.6,8.12,1.11
		l44.8-25.02c3.84-2.15,7.71,2.77,4.72,6l-58.54,63.29c-1.51,1.64-4.09,1.66-5.63,0.05l-31.39-32.86c-2.14-2.24-5.51-2.75-8.22-1.26
		l-45.5,25.12C103.33,207.64,99.49,202.67,102.52,199.47z"></path></svg>