<svg id="Layer_1" data-name="Layer 1" xmlns="http://www.w3.org/2000/svg" viewBox="0 0 730.11 730.36"><defs><style>.cls-1{fill:#ff712b;}</style></defs><title>Only B- Logo</title><path class="cls-1" d="M561.76,365q34.46,14.56,58.35,57.07T644,531.68c0,40.24-12.72,112.68-58.39,145.52-60.06,43.19-125.06,41.06-195.14,42.55-39.11.82-78.25.65-117.33-.91-44.91-1.78-88.26-4.31-128-26.79-49.52-28-86.89-76.17-86.89-134.44V477.24A182.75,182.75,0,0,1,241,294.49H478a50.25,50.25,0,0,0,31.72-10.63q13.7-10.62,13.7-39.72,0-27.94-14.09-38A52.71,52.71,0,0,0,478,196H58.21L167.85,10.13h259.2c81.76,0,160.25,25,191.49,108.14Q633,156.87,633,208.34q0,33.57-6.27,59.3t-16,45.31q-9.8,19.59-22.71,32.44T561.76,365ZM199.17,486.23v39.44a31.76,31.76,0,0,0,31.75,31.75H449.3q26.63,0,38.38-13.43t11.75-39.16q0-24.6-11.75-37.48T449.3,454.48H230.92A31.76,31.76,0,0,0,199.17,486.23Z"/></svg>